<svg xmlns="http://www.w3.org/2000/svg" viewBox="0 0 1600 420" preserveAspectRatio="none" width="1600" height="420">
  <g fill="#0e142c"><rect x="-20" y="71" width="107" height="349" rx="2"/>
<rect class="w" x="-12" y="101" width="6" height="9" rx="1" opacity="0.69"/>
<rect class="w" x="-12" y="155" width="6" height="9" rx="1" opacity="0.39"/>
<rect class="w" x="-12" y="191" width="6" height="9" rx="1" opacity="0.59"/>
<rect class="w" x="-12" y="209" width="6" height="9" rx="1" opacity="0.31"/>
<rect class="w" x="-12" y="299" width="6" height="9" rx="1" opacity="0.29"/>
<rect class="w" x="2" y="83" width="6" height="9" rx="1" opacity="0.82"/>
<rect class="w" x="2" y="101" width="6" height="9" rx="1" opacity="0.68"/>
<rect class="w" x="2" y="137" width="6" height="9" rx="1" opacity="0.31"/>
<rect class="w" x="2" y="245" width="6" height="9" rx="1" opacity="0.38"/>
<rect class="w" x="2" y="263" width="6" height="9" rx="1" opacity="0.86"/>
<rect class="w" x="2" y="281" width="6" height="9" rx="1" opacity="0.34"/>
<rect class="w" x="2" y="299" width="6" height="9" rx="1" opacity="0.28"/>
<rect class="w" x="2" y="317" width="6" height="9" rx="1" opacity="0.68"/>
<rect class="w" x="2" y="353" width="6" height="9" rx="1" opacity="0.53"/>
<rect class="w" x="2" y="371" width="6" height="9" rx="1" opacity="0.48"/>
<rect class="w" x="16" y="101" width="6" height="9" rx="1" opacity="0.33"/>
<rect class="w" x="16" y="173" width="6" height="9" rx="1" opacity="0.66"/>
<rect class="w" x="16" y="245" width="6" height="9" rx="1" opacity="0.98"/>
<rect class="w" x="16" y="263" width="6" height="9" rx="1" opacity="0.56"/>
<rect class="w" x="16" y="281" width="6" height="9" rx="1" opacity="0.86"/>
<rect class="w" x="30" y="101" width="6" height="9" rx="1" opacity="0.98"/>
<rect class="w" x="30" y="119" width="6" height="9" rx="1" opacity="0.39"/>
<rect class="w" x="30" y="137" width="6" height="9" rx="1" opacity="0.6"/>
<rect class="w" x="30" y="155" width="6" height="9" rx="1" opacity="0.95"/>
<rect class="w" x="30" y="191" width="6" height="9" rx="1" opacity="0.33"/>
<rect class="w" x="30" y="227" width="6" height="9" rx="1" opacity="0.66"/>
<rect class="w" x="30" y="263" width="6" height="9" rx="1" opacity="0.57"/>
<rect class="w" x="30" y="317" width="6" height="9" rx="1" opacity="0.92"/>
<rect class="w" x="30" y="389" width="6" height="9" rx="1" opacity="0.77"/>
<rect class="w" x="44" y="119" width="6" height="9" rx="1" opacity="0.47"/>
<rect class="w" x="44" y="137" width="6" height="9" rx="1" opacity="0.83"/>
<rect class="w" x="44" y="209" width="6" height="9" rx="1" opacity="0.72"/>
<rect class="w" x="44" y="227" width="6" height="9" rx="1" opacity="0.67"/>
<rect class="w" x="44" y="263" width="6" height="9" rx="1" opacity="0.96"/>
<rect class="w" x="44" y="281" width="6" height="9" rx="1" opacity="0.67"/>
<rect class="w" x="44" y="317" width="6" height="9" rx="1" opacity="0.67"/>
<rect class="w" x="44" y="389" width="6" height="9" rx="1" opacity="0.53"/>
<rect class="w" x="58" y="101" width="6" height="9" rx="1" opacity="0.9"/>
<rect class="w" x="58" y="119" width="6" height="9" rx="1" opacity="0.76"/>
<rect class="w" x="58" y="137" width="6" height="9" rx="1" opacity="0.59"/>
<rect class="w" x="58" y="173" width="6" height="9" rx="1" opacity="0.77"/>
<rect class="w" x="58" y="281" width="6" height="9" rx="1" opacity="0.92"/>
<rect class="w" x="58" y="299" width="6" height="9" rx="1" opacity="0.91"/>
<rect x="93" y="189" width="91" height="231" rx="2"/>
<rect class="w" x="101" y="219" width="6" height="9" rx="1" opacity="0.95"/>
<rect class="w" x="101" y="237" width="6" height="9" rx="1" opacity="0.28"/>
<rect class="w" x="101" y="363" width="6" height="9" rx="1" opacity="0.92"/>
<rect class="w" x="115" y="201" width="6" height="9" rx="1" opacity="0.53"/>
<rect class="w" x="115" y="255" width="6" height="9" rx="1" opacity="0.83"/>
<rect class="w" x="115" y="273" width="6" height="9" rx="1" opacity="0.28"/>
<rect class="w" x="115" y="309" width="6" height="9" rx="1" opacity="0.82"/>
<rect class="w" x="115" y="363" width="6" height="9" rx="1" opacity="0.31"/>
<rect class="w" x="115" y="381" width="6" height="9" rx="1" opacity="0.67"/>
<rect class="w" x="129" y="237" width="6" height="9" rx="1" opacity="0.63"/>
<rect class="w" x="129" y="273" width="6" height="9" rx="1" opacity="0.99"/>
<rect class="w" x="129" y="345" width="6" height="9" rx="1" opacity="0.34"/>
<rect class="w" x="143" y="201" width="6" height="9" rx="1" opacity="0.76"/>
<rect class="w" x="143" y="237" width="6" height="9" rx="1" opacity="0.92"/>
<rect class="w" x="143" y="255" width="6" height="9" rx="1" opacity="0.85"/>
<rect class="w" x="143" y="273" width="6" height="9" rx="1" opacity="0.28"/>
<rect class="w" x="143" y="309" width="6" height="9" rx="1" opacity="0.27"/>
<rect class="w" x="143" y="327" width="6" height="9" rx="1" opacity="0.37"/>
<rect class="w" x="143" y="345" width="6" height="9" rx="1" opacity="0.98"/>
<rect class="w" x="157" y="201" width="6" height="9" rx="1" opacity="0.69"/>
<rect class="w" x="157" y="273" width="6" height="9" rx="1" opacity="0.67"/>
<rect class="w" x="157" y="381" width="6" height="9" rx="1" opacity="0.99"/>
<rect x="190" y="260" width="101" height="160" rx="2"/>
<rect class="w" x="198" y="272" width="6" height="9" rx="1" opacity="0.41"/>
<rect class="w" x="198" y="308" width="6" height="9" rx="1" opacity="0.49"/>
<rect class="w" x="198" y="344" width="6" height="9" rx="1" opacity="0.8"/>
<rect class="w" x="198" y="380" width="6" height="9" rx="1" opacity="0.95"/>
<rect class="w" x="212" y="272" width="6" height="9" rx="1" opacity="0.97"/>
<rect class="w" x="212" y="290" width="6" height="9" rx="1" opacity="0.47"/>
<rect class="w" x="212" y="326" width="6" height="9" rx="1" opacity="0.53"/>
<rect class="w" x="212" y="362" width="6" height="9" rx="1" opacity="0.92"/>
<rect class="w" x="226" y="290" width="6" height="9" rx="1" opacity="0.58"/>
<rect class="w" x="226" y="308" width="6" height="9" rx="1" opacity="0.83"/>
<rect class="w" x="226" y="362" width="6" height="9" rx="1" opacity="0.73"/>
<rect class="w" x="226" y="380" width="6" height="9" rx="1" opacity="0.8"/>
<rect class="w" x="240" y="290" width="6" height="9" rx="1" opacity="0.96"/>
<rect class="w" x="240" y="380" width="6" height="9" rx="1" opacity="0.99"/>
<rect class="w" x="268" y="308" width="6" height="9" rx="1" opacity="0.26"/>
<rect class="w" x="268" y="344" width="6" height="9" rx="1" opacity="0.73"/>
<rect x="297" y="90" width="65" height="330" rx="2"/>
<rect x="326" y="61" width="6" height="29"/>
<rect class="w" x="305" y="138" width="6" height="9" rx="1" opacity="0.8"/>
<rect class="w" x="305" y="156" width="6" height="9" rx="1" opacity="0.75"/>
<rect class="w" x="305" y="210" width="6" height="9" rx="1" opacity="0.84"/>
<rect class="w" x="305" y="228" width="6" height="9" rx="1" opacity="0.94"/>
<rect class="w" x="305" y="264" width="6" height="9" rx="1" opacity="0.44"/>
<rect class="w" x="305" y="354" width="6" height="9" rx="1" opacity="0.61"/>
<rect class="w" x="305" y="390" width="6" height="9" rx="1" opacity="0.45"/>
<rect class="w" x="319" y="156" width="6" height="9" rx="1" opacity="0.94"/>
<rect class="w" x="319" y="246" width="6" height="9" rx="1" opacity="0.88"/>
<rect class="w" x="319" y="318" width="6" height="9" rx="1" opacity="0.94"/>
<rect class="w" x="319" y="354" width="6" height="9" rx="1" opacity="0.28"/>
<rect class="w" x="333" y="102" width="6" height="9" rx="1" opacity="0.26"/>
<rect class="w" x="333" y="120" width="6" height="9" rx="1" opacity="0.26"/>
<rect class="w" x="333" y="210" width="6" height="9" rx="1" opacity="0.62"/>
<rect class="w" x="333" y="246" width="6" height="9" rx="1" opacity="0.79"/>
<rect class="w" x="333" y="264" width="6" height="9" rx="1" opacity="0.37"/>
<rect class="w" x="333" y="282" width="6" height="9" rx="1" opacity="0.88"/>
<rect class="w" x="333" y="300" width="6" height="9" rx="1" opacity="0.37"/>
<rect class="w" x="333" y="354" width="6" height="9" rx="1" opacity="0.88"/>
<rect class="w" x="333" y="390" width="6" height="9" rx="1" opacity="0.38"/>
<rect x="374" y="105" width="82" height="315" rx="2"/>
<rect class="w" x="382" y="171" width="6" height="9" rx="1" opacity="0.7"/>
<rect class="w" x="382" y="261" width="6" height="9" rx="1" opacity="0.63"/>
<rect class="w" x="382" y="279" width="6" height="9" rx="1" opacity="0.4"/>
<rect class="w" x="382" y="351" width="6" height="9" rx="1" opacity="0.44"/>
<rect class="w" x="382" y="369" width="6" height="9" rx="1" opacity="0.91"/>
<rect class="w" x="396" y="117" width="6" height="9" rx="1" opacity="0.66"/>
<rect class="w" x="396" y="135" width="6" height="9" rx="1" opacity="0.28"/>
<rect class="w" x="396" y="225" width="6" height="9" rx="1" opacity="0.67"/>
<rect class="w" x="396" y="297" width="6" height="9" rx="1" opacity="0.95"/>
<rect class="w" x="396" y="315" width="6" height="9" rx="1" opacity="0.8"/>
<rect class="w" x="396" y="369" width="6" height="9" rx="1" opacity="0.32"/>
<rect class="w" x="410" y="153" width="6" height="9" rx="1" opacity="0.75"/>
<rect class="w" x="410" y="171" width="6" height="9" rx="1" opacity="0.8"/>
<rect class="w" x="410" y="189" width="6" height="9" rx="1" opacity="0.91"/>
<rect class="w" x="410" y="225" width="6" height="9" rx="1" opacity="0.89"/>
<rect class="w" x="410" y="279" width="6" height="9" rx="1" opacity="0.8"/>
<rect class="w" x="424" y="117" width="6" height="9" rx="1" opacity="0.47"/>
<rect class="w" x="424" y="261" width="6" height="9" rx="1" opacity="0.8"/>
<rect class="w" x="424" y="297" width="6" height="9" rx="1" opacity="0.5"/>
<rect class="w" x="424" y="315" width="6" height="9" rx="1" opacity="0.26"/>
<rect class="w" x="424" y="333" width="6" height="9" rx="1" opacity="0.48"/>
<rect class="w" x="424" y="351" width="6" height="9" rx="1" opacity="0.61"/>
<rect class="w" x="424" y="369" width="6" height="9" rx="1" opacity="0.94"/>
<rect x="468" y="250" width="96" height="170" rx="2"/>
<rect x="515" y="238" width="3" height="12"/>
<rect class="w" x="476" y="280" width="6" height="9" rx="1" opacity="0.99"/>
<rect class="w" x="476" y="334" width="6" height="9" rx="1" opacity="0.32"/>
<rect class="w" x="476" y="388" width="6" height="9" rx="1" opacity="0.95"/>
<rect class="w" x="490" y="334" width="6" height="9" rx="1" opacity="0.8"/>
<rect class="w" x="490" y="388" width="6" height="9" rx="1" opacity="0.66"/>
<rect class="w" x="504" y="298" width="6" height="9" rx="1" opacity="0.53"/>
<rect class="w" x="504" y="316" width="6" height="9" rx="1" opacity="0.84"/>
<rect class="w" x="504" y="334" width="6" height="9" rx="1" opacity="0.3"/>
<rect class="w" x="504" y="352" width="6" height="9" rx="1" opacity="0.34"/>
<rect class="w" x="518" y="262" width="6" height="9" rx="1" opacity="0.33"/>
<rect class="w" x="518" y="298" width="6" height="9" rx="1" opacity="0.68"/>
<rect class="w" x="532" y="316" width="6" height="9" rx="1" opacity="0.63"/>
<rect x="573" y="169" width="82" height="251" rx="2"/>
<rect class="w" x="581" y="181" width="6" height="9" rx="1" opacity="0.61"/>
<rect class="w" x="581" y="271" width="6" height="9" rx="1" opacity="0.91"/>
<rect class="w" x="581" y="307" width="6" height="9" rx="1" opacity="0.28"/>
<rect class="w" x="581" y="361" width="6" height="9" rx="1" opacity="0.99"/>
<rect class="w" x="595" y="217" width="6" height="9" rx="1" opacity="0.64"/>
<rect class="w" x="595" y="235" width="6" height="9" rx="1" opacity="0.71"/>
<rect class="w" x="595" y="289" width="6" height="9" rx="1" opacity="0.4"/>
<rect class="w" x="595" y="307" width="6" height="9" rx="1" opacity="0.25"/>
<rect class="w" x="595" y="325" width="6" height="9" rx="1" opacity="0.97"/>
<rect class="w" x="595" y="361" width="6" height="9" rx="1" opacity="0.87"/>
<rect class="w" x="595" y="379" width="6" height="9" rx="1" opacity="0.43"/>
<rect class="w" x="609" y="199" width="6" height="9" rx="1" opacity="0.4"/>
<rect class="w" x="609" y="217" width="6" height="9" rx="1" opacity="0.38"/>
<rect class="w" x="609" y="235" width="6" height="9" rx="1" opacity="0.93"/>
<rect class="w" x="609" y="253" width="6" height="9" rx="1" opacity="0.66"/>
<rect class="w" x="609" y="271" width="6" height="9" rx="1" opacity="0.79"/>
<rect class="w" x="609" y="289" width="6" height="9" rx="1" opacity="0.53"/>
<rect class="w" x="609" y="325" width="6" height="9" rx="1" opacity="0.56"/>
<rect class="w" x="609" y="343" width="6" height="9" rx="1" opacity="0.61"/>
<rect class="w" x="609" y="379" width="6" height="9" rx="1" opacity="0.9"/>
<rect class="w" x="623" y="181" width="6" height="9" rx="1" opacity="0.83"/>
<rect class="w" x="623" y="199" width="6" height="9" rx="1" opacity="0.32"/>
<rect class="w" x="623" y="217" width="6" height="9" rx="1" opacity="0.31"/>
<rect class="w" x="623" y="235" width="6" height="9" rx="1" opacity="0.35"/>
<rect class="w" x="623" y="253" width="6" height="9" rx="1" opacity="0.89"/>
<rect class="w" x="623" y="343" width="6" height="9" rx="1" opacity="0.28"/>
<rect class="w" x="623" y="379" width="6" height="9" rx="1" opacity="0.63"/>
<rect x="666" y="60" width="78" height="360" rx="2"/>
<rect x="702" y="41" width="6" height="19"/>
<rect class="w" x="674" y="72" width="6" height="9" rx="1" opacity="0.69"/>
<rect class="w" x="674" y="90" width="6" height="9" rx="1" opacity="0.82"/>
<rect class="w" x="674" y="234" width="6" height="9" rx="1" opacity="0.85"/>
<rect class="w" x="674" y="288" width="6" height="9" rx="1" opacity="0.98"/>
<rect class="w" x="674" y="324" width="6" height="9" rx="1" opacity="0.84"/>
<rect class="w" x="674" y="342" width="6" height="9" rx="1" opacity="0.43"/>
<rect class="w" x="674" y="378" width="6" height="9" rx="1" opacity="0.9"/>
<rect class="w" x="674" y="396" width="6" height="9" rx="1" opacity="0.68"/>
<rect class="w" x="688" y="108" width="6" height="9" rx="1" opacity="0.32"/>
<rect class="w" x="688" y="144" width="6" height="9" rx="1" opacity="0.57"/>
<rect class="w" x="688" y="162" width="6" height="9" rx="1" opacity="0.32"/>
<rect class="w" x="688" y="198" width="6" height="9" rx="1" opacity="0.45"/>
<rect class="w" x="688" y="216" width="6" height="9" rx="1" opacity="0.32"/>
<rect class="w" x="688" y="270" width="6" height="9" rx="1" opacity="0.86"/>
<rect class="w" x="688" y="288" width="6" height="9" rx="1" opacity="0.8"/>
<rect class="w" x="688" y="306" width="6" height="9" rx="1" opacity="0.81"/>
<rect class="w" x="688" y="342" width="6" height="9" rx="1" opacity="0.37"/>
<rect class="w" x="688" y="360" width="6" height="9" rx="1" opacity="0.89"/>
<rect class="w" x="688" y="396" width="6" height="9" rx="1" opacity="0.93"/>
<rect class="w" x="702" y="126" width="6" height="9" rx="1" opacity="0.8"/>
<rect class="w" x="702" y="144" width="6" height="9" rx="1" opacity="0.39"/>
<rect class="w" x="702" y="180" width="6" height="9" rx="1" opacity="0.41"/>
<rect class="w" x="702" y="198" width="6" height="9" rx="1" opacity="0.59"/>
<rect class="w" x="702" y="288" width="6" height="9" rx="1" opacity="0.85"/>
<rect class="w" x="702" y="378" width="6" height="9" rx="1" opacity="0.59"/>
<rect class="w" x="716" y="108" width="6" height="9" rx="1" opacity="0.82"/>
<rect class="w" x="716" y="180" width="6" height="9" rx="1" opacity="0.91"/>
<rect class="w" x="716" y="198" width="6" height="9" rx="1" opacity="0.68"/>
<rect class="w" x="716" y="270" width="6" height="9" rx="1" opacity="0.37"/>
<rect class="w" x="716" y="288" width="6" height="9" rx="1" opacity="0.81"/>
<rect class="w" x="716" y="324" width="6" height="9" rx="1" opacity="0.42"/>
<rect class="w" x="716" y="360" width="6" height="9" rx="1" opacity="0.65"/>
<rect class="w" x="716" y="378" width="6" height="9" rx="1" opacity="0.49"/>
<rect x="749" y="186" width="71" height="234" rx="2"/>
<rect x="782" y="160" width="4" height="26"/>
<rect class="w" x="757" y="198" width="6" height="9" rx="1" opacity="0.48"/>
<rect class="w" x="757" y="216" width="6" height="9" rx="1" opacity="0.49"/>
<rect class="w" x="757" y="270" width="6" height="9" rx="1" opacity="0.79"/>
<rect class="w" x="757" y="360" width="6" height="9" rx="1" opacity="0.71"/>
<rect class="w" x="757" y="378" width="6" height="9" rx="1" opacity="0.84"/>
<rect class="w" x="771" y="198" width="6" height="9" rx="1" opacity="0.99"/>
<rect class="w" x="771" y="216" width="6" height="9" rx="1" opacity="0.26"/>
<rect class="w" x="771" y="234" width="6" height="9" rx="1" opacity="0.77"/>
<rect class="w" x="771" y="252" width="6" height="9" rx="1" opacity="0.8"/>
<rect class="w" x="771" y="270" width="6" height="9" rx="1" opacity="0.47"/>
<rect class="w" x="771" y="306" width="6" height="9" rx="1" opacity="0.57"/>
<rect class="w" x="771" y="360" width="6" height="9" rx="1" opacity="0.93"/>
<rect class="w" x="785" y="198" width="6" height="9" rx="1" opacity="0.54"/>
<rect class="w" x="785" y="270" width="6" height="9" rx="1" opacity="0.57"/>
<rect class="w" x="785" y="288" width="6" height="9" rx="1" opacity="0.42"/>
<rect class="w" x="785" y="306" width="6" height="9" rx="1" opacity="0.81"/>
<rect class="w" x="785" y="324" width="6" height="9" rx="1" opacity="0.52"/>
<rect class="w" x="785" y="342" width="6" height="9" rx="1" opacity="0.78"/>
<rect class="w" x="785" y="378" width="6" height="9" rx="1" opacity="0.96"/>
<rect class="w" x="799" y="252" width="6" height="9" rx="1" opacity="0.45"/>
<rect class="w" x="799" y="270" width="6" height="9" rx="1" opacity="0.27"/>
<rect class="w" x="799" y="324" width="6" height="9" rx="1" opacity="0.81"/>
<rect class="w" x="799" y="342" width="6" height="9" rx="1" opacity="0.46"/>
<rect class="w" x="799" y="360" width="6" height="9" rx="1" opacity="0.43"/>
<rect x="833" y="222" width="48" height="198" rx="2"/>
<rect class="w" x="841" y="234" width="6" height="9" rx="1" opacity="0.98"/>
<rect class="w" x="841" y="252" width="6" height="9" rx="1" opacity="0.56"/>
<rect class="w" x="841" y="306" width="6" height="9" rx="1" opacity="0.87"/>
<rect class="w" x="841" y="360" width="6" height="9" rx="1" opacity="0.76"/>
<rect class="w" x="855" y="288" width="6" height="9" rx="1" opacity="0.68"/>
<rect class="w" x="855" y="306" width="6" height="9" rx="1" opacity="0.71"/>
<rect class="w" x="855" y="324" width="6" height="9" rx="1" opacity="1.0"/>
<rect class="w" x="855" y="342" width="6" height="9" rx="1" opacity="0.84"/>
<rect class="w" x="855" y="378" width="6" height="9" rx="1" opacity="0.69"/>
<rect class="w" x="855" y="396" width="6" height="9" rx="1" opacity="0.53"/>
<rect x="890" y="88" width="109" height="332" rx="2"/>
<rect class="w" x="898" y="100" width="6" height="9" rx="1" opacity="0.26"/>
<rect class="w" x="898" y="118" width="6" height="9" rx="1" opacity="0.88"/>
<rect class="w" x="898" y="208" width="6" height="9" rx="1" opacity="0.87"/>
<rect class="w" x="898" y="244" width="6" height="9" rx="1" opacity="0.76"/>
<rect class="w" x="898" y="280" width="6" height="9" rx="1" opacity="0.69"/>
<rect class="w" x="898" y="334" width="6" height="9" rx="1" opacity="0.63"/>
<rect class="w" x="898" y="352" width="6" height="9" rx="1" opacity="0.36"/>
<rect class="w" x="898" y="370" width="6" height="9" rx="1" opacity="0.33"/>
<rect class="w" x="912" y="100" width="6" height="9" rx="1" opacity="0.99"/>
<rect class="w" x="912" y="136" width="6" height="9" rx="1" opacity="0.87"/>
<rect class="w" x="912" y="154" width="6" height="9" rx="1" opacity="0.62"/>
<rect class="w" x="912" y="190" width="6" height="9" rx="1" opacity="0.71"/>
<rect class="w" x="912" y="208" width="6" height="9" rx="1" opacity="0.51"/>
<rect class="w" x="912" y="334" width="6" height="9" rx="1" opacity="1.0"/>
<rect class="w" x="912" y="370" width="6" height="9" rx="1" opacity="0.31"/>
<rect class="w" x="926" y="100" width="6" height="9" rx="1" opacity="0.68"/>
<rect class="w" x="926" y="172" width="6" height="9" rx="1" opacity="0.49"/>
<rect class="w" x="926" y="226" width="6" height="9" rx="1" opacity="0.99"/>
<rect class="w" x="926" y="262" width="6" height="9" rx="1" opacity="0.69"/>
<rect class="w" x="926" y="316" width="6" height="9" rx="1" opacity="0.8"/>
<rect class="w" x="926" y="334" width="6" height="9" rx="1" opacity="0.42"/>
<rect class="w" x="940" y="136" width="6" height="9" rx="1" opacity="0.77"/>
<rect class="w" x="940" y="172" width="6" height="9" rx="1" opacity="0.95"/>
<rect class="w" x="940" y="190" width="6" height="9" rx="1" opacity="0.36"/>
<rect class="w" x="940" y="226" width="6" height="9" rx="1" opacity="0.43"/>
<rect class="w" x="940" y="244" width="6" height="9" rx="1" opacity="0.49"/>
<rect class="w" x="940" y="280" width="6" height="9" rx="1" opacity="0.86"/>
<rect class="w" x="940" y="370" width="6" height="9" rx="1" opacity="0.82"/>
<rect class="w" x="940" y="388" width="6" height="9" rx="1" opacity="0.85"/>
<rect class="w" x="954" y="118" width="6" height="9" rx="1" opacity="0.91"/>
<rect class="w" x="954" y="136" width="6" height="9" rx="1" opacity="0.63"/>
<rect class="w" x="954" y="154" width="6" height="9" rx="1" opacity="0.71"/>
<rect class="w" x="954" y="172" width="6" height="9" rx="1" opacity="0.96"/>
<rect class="w" x="954" y="208" width="6" height="9" rx="1" opacity="0.46"/>
<rect class="w" x="954" y="226" width="6" height="9" rx="1" opacity="0.87"/>
<rect class="w" x="954" y="316" width="6" height="9" rx="1" opacity="0.9"/>
<rect class="w" x="954" y="370" width="6" height="9" rx="1" opacity="0.77"/>
<rect class="w" x="954" y="388" width="6" height="9" rx="1" opacity="0.39"/>
<rect class="w" x="968" y="100" width="6" height="9" rx="1" opacity="0.77"/>
<rect class="w" x="968" y="118" width="6" height="9" rx="1" opacity="0.58"/>
<rect class="w" x="968" y="172" width="6" height="9" rx="1" opacity="0.82"/>
<rect class="w" x="968" y="208" width="6" height="9" rx="1" opacity="0.51"/>
<rect class="w" x="968" y="226" width="6" height="9" rx="1" opacity="0.98"/>
<rect class="w" x="968" y="244" width="6" height="9" rx="1" opacity="0.33"/>
<rect class="w" x="968" y="262" width="6" height="9" rx="1" opacity="0.73"/>
<rect class="w" x="968" y="280" width="6" height="9" rx="1" opacity="0.49"/>
<rect class="w" x="968" y="370" width="6" height="9" rx="1" opacity="0.64"/>
<rect class="w" x="968" y="388" width="6" height="9" rx="1" opacity="0.74"/>
<rect x="1003" y="247" width="92" height="173" rx="2"/>
<rect class="w" x="1011" y="259" width="6" height="9" rx="1" opacity="0.84"/>
<rect class="w" x="1011" y="295" width="6" height="9" rx="1" opacity="0.49"/>
<rect class="w" x="1025" y="259" width="6" height="9" rx="1" opacity="0.8"/>
<rect class="w" x="1025" y="295" width="6" height="9" rx="1" opacity="0.98"/>
<rect class="w" x="1025" y="331" width="6" height="9" rx="1" opacity="0.86"/>
<rect class="w" x="1025" y="349" width="6" height="9" rx="1" opacity="0.46"/>
<rect class="w" x="1025" y="385" width="6" height="9" rx="1" opacity="0.59"/>
<rect class="w" x="1039" y="331" width="6" height="9" rx="1" opacity="0.43"/>
<rect class="w" x="1039" y="349" width="6" height="9" rx="1" opacity="0.5"/>
<rect class="w" x="1053" y="259" width="6" height="9" rx="1" opacity="0.86"/>
<rect class="w" x="1053" y="277" width="6" height="9" rx="1" opacity="0.81"/>
<rect class="w" x="1053" y="349" width="6" height="9" rx="1" opacity="0.47"/>
<rect class="w" x="1067" y="295" width="6" height="9" rx="1" opacity="0.35"/>
<rect class="w" x="1067" y="331" width="6" height="9" rx="1" opacity="0.69"/>
<rect class="w" x="1067" y="385" width="6" height="9" rx="1" opacity="0.93"/>
<rect x="1101" y="178" width="53" height="242" rx="2"/>
<rect x="1125" y="147" width="5" height="31"/>
<rect class="w" x="1109" y="190" width="6" height="9" rx="1" opacity="0.73"/>
<rect class="w" x="1109" y="208" width="6" height="9" rx="1" opacity="0.43"/>
<rect class="w" x="1109" y="262" width="6" height="9" rx="1" opacity="0.8"/>
<rect class="w" x="1109" y="352" width="6" height="9" rx="1" opacity="0.5"/>
<rect class="w" x="1109" y="370" width="6" height="9" rx="1" opacity="0.42"/>
<rect class="w" x="1123" y="208" width="6" height="9" rx="1" opacity="0.31"/>
<rect class="w" x="1123" y="226" width="6" height="9" rx="1" opacity="0.41"/>
<rect class="w" x="1123" y="244" width="6" height="9" rx="1" opacity="0.72"/>
<rect class="w" x="1123" y="334" width="6" height="9" rx="1" opacity="0.81"/>
<rect class="w" x="1123" y="370" width="6" height="9" rx="1" opacity="0.48"/>
<rect x="1167" y="229" width="68" height="191" rx="2"/>
<rect x="1199" y="205" width="5" height="24"/>
<rect class="w" x="1175" y="259" width="6" height="9" rx="1" opacity="0.78"/>
<rect class="w" x="1175" y="295" width="6" height="9" rx="1" opacity="0.66"/>
<rect class="w" x="1175" y="367" width="6" height="9" rx="1" opacity="0.43"/>
<rect class="w" x="1189" y="241" width="6" height="9" rx="1" opacity="0.58"/>
<rect class="w" x="1189" y="259" width="6" height="9" rx="1" opacity="0.8"/>
<rect class="w" x="1189" y="295" width="6" height="9" rx="1" opacity="0.93"/>
<rect class="w" x="1189" y="313" width="6" height="9" rx="1" opacity="0.32"/>
<rect class="w" x="1189" y="367" width="6" height="9" rx="1" opacity="0.78"/>
<rect x="1242" y="262" width="63" height="158" rx="2"/>
<rect x="1270" y="248" width="7" height="14"/>
<rect class="w" x="1250" y="274" width="6" height="9" rx="1" opacity="0.88"/>
<rect class="w" x="1250" y="292" width="6" height="9" rx="1" opacity="0.47"/>
<rect class="w" x="1250" y="364" width="6" height="9" rx="1" opacity="0.74"/>
<rect class="w" x="1250" y="382" width="6" height="9" rx="1" opacity="0.34"/>
<rect class="w" x="1264" y="310" width="6" height="9" rx="1" opacity="0.27"/>
<rect class="w" x="1264" y="328" width="6" height="9" rx="1" opacity="0.68"/>
<rect class="w" x="1264" y="346" width="6" height="9" rx="1" opacity="0.96"/>
<rect class="w" x="1264" y="364" width="6" height="9" rx="1" opacity="0.81"/>
<rect class="w" x="1278" y="274" width="6" height="9" rx="1" opacity="0.86"/>
<rect class="w" x="1278" y="292" width="6" height="9" rx="1" opacity="0.83"/>
<rect x="1311" y="262" width="61" height="158" rx="2"/>
<rect x="1339" y="234" width="5" height="28"/>
<rect class="w" x="1319" y="274" width="6" height="9" rx="1" opacity="0.66"/>
<rect class="w" x="1319" y="310" width="6" height="9" rx="1" opacity="0.41"/>
<rect class="w" x="1333" y="310" width="6" height="9" rx="1" opacity="0.61"/>
<rect class="w" x="1333" y="328" width="6" height="9" rx="1" opacity="0.74"/>
<rect class="w" x="1333" y="364" width="6" height="9" rx="1" opacity="0.69"/>
<rect class="w" x="1347" y="310" width="6" height="9" rx="1" opacity="0.47"/>
<rect x="1374" y="270" width="77" height="150" rx="2"/>
<rect class="w" x="1382" y="282" width="6" height="9" rx="1" opacity="0.29"/>
<rect class="w" x="1382" y="318" width="6" height="9" rx="1" opacity="0.81"/>
<rect class="w" x="1396" y="318" width="6" height="9" rx="1" opacity="0.26"/>
<rect class="w" x="1410" y="282" width="6" height="9" rx="1" opacity="0.33"/>
<rect class="w" x="1410" y="300" width="6" height="9" rx="1" opacity="0.97"/>
<rect class="w" x="1410" y="336" width="6" height="9" rx="1" opacity="0.58"/>
<rect class="w" x="1410" y="390" width="6" height="9" rx="1" opacity="0.65"/>
<rect class="w" x="1424" y="282" width="6" height="9" rx="1" opacity="0.68"/>
<rect class="w" x="1424" y="300" width="6" height="9" rx="1" opacity="0.64"/>
<rect class="w" x="1424" y="318" width="6" height="9" rx="1" opacity="0.28"/>
<rect class="w" x="1424" y="372" width="6" height="9" rx="1" opacity="0.55"/>
<rect x="1458" y="201" width="97" height="219" rx="2"/>
<rect class="w" x="1466" y="321" width="6" height="9" rx="1" opacity="0.38"/>
<rect class="w" x="1480" y="267" width="6" height="9" rx="1" opacity="0.79"/>
<rect class="w" x="1480" y="285" width="6" height="9" rx="1" opacity="0.76"/>
<rect class="w" x="1480" y="303" width="6" height="9" rx="1" opacity="0.49"/>
<rect class="w" x="1480" y="339" width="6" height="9" rx="1" opacity="0.81"/>
<rect class="w" x="1480" y="375" width="6" height="9" rx="1" opacity="0.48"/>
<rect class="w" x="1494" y="249" width="6" height="9" rx="1" opacity="0.54"/>
<rect class="w" x="1494" y="303" width="6" height="9" rx="1" opacity="0.5"/>
<rect class="w" x="1494" y="339" width="6" height="9" rx="1" opacity="0.6"/>
<rect class="w" x="1494" y="375" width="6" height="9" rx="1" opacity="0.73"/>
<rect class="w" x="1508" y="249" width="6" height="9" rx="1" opacity="0.62"/>
<rect class="w" x="1508" y="267" width="6" height="9" rx="1" opacity="0.69"/>
<rect class="w" x="1508" y="339" width="6" height="9" rx="1" opacity="0.59"/>
<rect class="w" x="1522" y="231" width="6" height="9" rx="1" opacity="0.61"/>
<rect class="w" x="1522" y="285" width="6" height="9" rx="1" opacity="0.78"/>
<rect class="w" x="1522" y="303" width="6" height="9" rx="1" opacity="0.92"/>
<rect class="w" x="1522" y="321" width="6" height="9" rx="1" opacity="0.96"/>
<rect class="w" x="1522" y="393" width="6" height="9" rx="1" opacity="0.69"/>
<rect x="1567" y="109" width="109" height="311" rx="2"/>
<rect x="1618" y="93" width="7" height="16"/>
<rect class="w" x="1575" y="157" width="6" height="9" rx="1" opacity="0.69"/>
<rect class="w" x="1575" y="193" width="6" height="9" rx="1" opacity="0.85"/>
<rect class="w" x="1575" y="211" width="6" height="9" rx="1" opacity="0.54"/>
<rect class="w" x="1575" y="373" width="6" height="9" rx="1" opacity="0.53"/>
<rect class="w" x="1589" y="121" width="6" height="9" rx="1" opacity="0.68"/>
<rect class="w" x="1589" y="139" width="6" height="9" rx="1" opacity="0.67"/>
<rect class="w" x="1589" y="157" width="6" height="9" rx="1" opacity="0.39"/>
<rect class="w" x="1589" y="355" width="6" height="9" rx="1" opacity="0.77"/>
<rect class="w" x="1603" y="139" width="6" height="9" rx="1" opacity="0.56"/>
<rect class="w" x="1603" y="157" width="6" height="9" rx="1" opacity="0.39"/>
<rect class="w" x="1603" y="229" width="6" height="9" rx="1" opacity="0.82"/>
<rect class="w" x="1603" y="247" width="6" height="9" rx="1" opacity="0.62"/>
<rect class="w" x="1603" y="265" width="6" height="9" rx="1" opacity="0.48"/>
<rect class="w" x="1603" y="301" width="6" height="9" rx="1" opacity="0.97"/>
<rect class="w" x="1603" y="355" width="6" height="9" rx="1" opacity="0.92"/>
<rect class="w" x="1617" y="139" width="6" height="9" rx="1" opacity="0.7"/>
<rect class="w" x="1617" y="157" width="6" height="9" rx="1" opacity="0.27"/>
<rect class="w" x="1617" y="193" width="6" height="9" rx="1" opacity="0.94"/>
<rect class="w" x="1617" y="211" width="6" height="9" rx="1" opacity="0.93"/>
<rect class="w" x="1617" y="229" width="6" height="9" rx="1" opacity="0.79"/>
<rect class="w" x="1617" y="247" width="6" height="9" rx="1" opacity="0.77"/>
<rect class="w" x="1617" y="265" width="6" height="9" rx="1" opacity="0.42"/>
<rect class="w" x="1617" y="283" width="6" height="9" rx="1" opacity="0.99"/>
<rect class="w" x="1617" y="319" width="6" height="9" rx="1" opacity="0.97"/>
<rect class="w" x="1617" y="355" width="6" height="9" rx="1" opacity="0.71"/>
<rect class="w" x="1617" y="373" width="6" height="9" rx="1" opacity="0.51"/>
<rect class="w" x="1617" y="391" width="6" height="9" rx="1" opacity="0.42"/>
<rect class="w" x="1631" y="139" width="6" height="9" rx="1" opacity="0.5"/>
<rect class="w" x="1631" y="157" width="6" height="9" rx="1" opacity="0.45"/>
<rect class="w" x="1631" y="193" width="6" height="9" rx="1" opacity="0.98"/>
<rect class="w" x="1631" y="211" width="6" height="9" rx="1" opacity="0.27"/>
<rect class="w" x="1631" y="229" width="6" height="9" rx="1" opacity="0.64"/>
<rect class="w" x="1631" y="247" width="6" height="9" rx="1" opacity="0.55"/>
<rect class="w" x="1631" y="301" width="6" height="9" rx="1" opacity="0.91"/>
<rect class="w" x="1631" y="319" width="6" height="9" rx="1" opacity="0.68"/>
<rect class="w" x="1631" y="337" width="6" height="9" rx="1" opacity="0.82"/>
<rect class="w" x="1631" y="391" width="6" height="9" rx="1" opacity="0.31"/>
<rect class="w" x="1645" y="121" width="6" height="9" rx="1" opacity="0.89"/>
<rect class="w" x="1645" y="157" width="6" height="9" rx="1" opacity="0.3"/>
<rect class="w" x="1645" y="175" width="6" height="9" rx="1" opacity="0.95"/>
<rect class="w" x="1645" y="193" width="6" height="9" rx="1" opacity="0.56"/>
<rect class="w" x="1645" y="211" width="6" height="9" rx="1" opacity="0.62"/>
<rect class="w" x="1645" y="229" width="6" height="9" rx="1" opacity="0.99"/>
<rect class="w" x="1645" y="355" width="6" height="9" rx="1" opacity="0.38"/></g>
  <style>.w{fill:#9dc4ff;}</style>
</svg>