<svg xmlns="http://www.w3.org/2000/svg" viewBox="0 0 1600 380" preserveAspectRatio="none" width="1600" height="380">
  <g fill="#141c3a"><rect x="-20" y="117" width="117" height="263" rx="2"/>
<rect class="w" x="-12" y="183" width="6" height="9" rx="1" opacity="0.85"/>
<rect class="w" x="-12" y="237" width="6" height="9" rx="1" opacity="0.58"/>
<rect class="w" x="-12" y="255" width="6" height="9" rx="1" opacity="0.65"/>
<rect class="w" x="-12" y="327" width="6" height="9" rx="1" opacity="0.59"/>
<rect class="w" x="2" y="183" width="6" height="9" rx="1" opacity="0.28"/>
<rect class="w" x="2" y="255" width="6" height="9" rx="1" opacity="0.69"/>
<rect class="w" x="2" y="273" width="6" height="9" rx="1" opacity="0.43"/>
<rect class="w" x="2" y="291" width="6" height="9" rx="1" opacity="0.25"/>
<rect class="w" x="2" y="309" width="6" height="9" rx="1" opacity="0.74"/>
<rect class="w" x="2" y="327" width="6" height="9" rx="1" opacity="0.66"/>
<rect class="w" x="16" y="129" width="6" height="9" rx="1" opacity="0.44"/>
<rect class="w" x="16" y="183" width="6" height="9" rx="1" opacity="0.67"/>
<rect class="w" x="16" y="201" width="6" height="9" rx="1" opacity="0.33"/>
<rect class="w" x="16" y="219" width="6" height="9" rx="1" opacity="0.3"/>
<rect class="w" x="16" y="237" width="6" height="9" rx="1" opacity="0.76"/>
<rect class="w" x="16" y="255" width="6" height="9" rx="1" opacity="0.95"/>
<rect class="w" x="16" y="273" width="6" height="9" rx="1" opacity="0.53"/>
<rect class="w" x="16" y="309" width="6" height="9" rx="1" opacity="0.67"/>
<rect class="w" x="16" y="327" width="6" height="9" rx="1" opacity="0.76"/>
<rect class="w" x="16" y="345" width="6" height="9" rx="1" opacity="0.48"/>
<rect class="w" x="30" y="129" width="6" height="9" rx="1" opacity="0.56"/>
<rect class="w" x="30" y="165" width="6" height="9" rx="1" opacity="0.78"/>
<rect class="w" x="30" y="183" width="6" height="9" rx="1" opacity="0.6"/>
<rect class="w" x="30" y="237" width="6" height="9" rx="1" opacity="0.63"/>
<rect class="w" x="30" y="291" width="6" height="9" rx="1" opacity="0.54"/>
<rect class="w" x="30" y="309" width="6" height="9" rx="1" opacity="0.99"/>
<rect class="w" x="30" y="327" width="6" height="9" rx="1" opacity="0.9"/>
<rect class="w" x="44" y="165" width="6" height="9" rx="1" opacity="0.39"/>
<rect class="w" x="44" y="237" width="6" height="9" rx="1" opacity="0.36"/>
<rect class="w" x="44" y="273" width="6" height="9" rx="1" opacity="0.71"/>
<rect class="w" x="44" y="309" width="6" height="9" rx="1" opacity="0.31"/>
<rect class="w" x="44" y="327" width="6" height="9" rx="1" opacity="0.73"/>
<rect class="w" x="44" y="345" width="6" height="9" rx="1" opacity="0.53"/>
<rect class="w" x="58" y="147" width="6" height="9" rx="1" opacity="0.69"/>
<rect class="w" x="58" y="183" width="6" height="9" rx="1" opacity="0.54"/>
<rect class="w" x="58" y="219" width="6" height="9" rx="1" opacity="0.42"/>
<rect class="w" x="58" y="273" width="6" height="9" rx="1" opacity="0.72"/>
<rect class="w" x="58" y="327" width="6" height="9" rx="1" opacity="0.61"/>
<rect class="w" x="58" y="345" width="6" height="9" rx="1" opacity="0.29"/>
<rect class="w" x="72" y="129" width="6" height="9" rx="1" opacity="0.63"/>
<rect class="w" x="72" y="147" width="6" height="9" rx="1" opacity="0.8"/>
<rect class="w" x="72" y="165" width="6" height="9" rx="1" opacity="0.57"/>
<rect class="w" x="72" y="273" width="6" height="9" rx="1" opacity="0.61"/>
<rect class="w" x="72" y="327" width="6" height="9" rx="1" opacity="0.41"/>
<rect x="110" y="243" width="62" height="137" rx="2"/>
<rect x="138" y="224" width="6" height="19"/>
<rect class="w" x="118" y="255" width="6" height="9" rx="1" opacity="0.38"/>
<rect class="w" x="118" y="273" width="6" height="9" rx="1" opacity="0.68"/>
<rect class="w" x="118" y="291" width="6" height="9" rx="1" opacity="0.52"/>
<rect class="w" x="132" y="291" width="6" height="9" rx="1" opacity="0.28"/>
<rect class="w" x="132" y="309" width="6" height="9" rx="1" opacity="0.93"/>
<rect class="w" x="146" y="255" width="6" height="9" rx="1" opacity="0.73"/>
<rect class="w" x="146" y="309" width="6" height="9" rx="1" opacity="1.0"/>
<rect class="w" x="146" y="327" width="6" height="9" rx="1" opacity="0.66"/>
<rect x="185" y="173" width="76" height="207" rx="2"/>
<rect class="w" x="193" y="239" width="6" height="9" rx="1" opacity="0.84"/>
<rect class="w" x="193" y="311" width="6" height="9" rx="1" opacity="0.69"/>
<rect class="w" x="193" y="347" width="6" height="9" rx="1" opacity="0.73"/>
<rect class="w" x="207" y="239" width="6" height="9" rx="1" opacity="0.8"/>
<rect class="w" x="207" y="311" width="6" height="9" rx="1" opacity="0.81"/>
<rect class="w" x="207" y="329" width="6" height="9" rx="1" opacity="0.7"/>
<rect class="w" x="221" y="185" width="6" height="9" rx="1" opacity="0.77"/>
<rect class="w" x="221" y="257" width="6" height="9" rx="1" opacity="0.26"/>
<rect class="w" x="221" y="275" width="6" height="9" rx="1" opacity="0.76"/>
<rect class="w" x="221" y="293" width="6" height="9" rx="1" opacity="0.38"/>
<rect class="w" x="235" y="203" width="6" height="9" rx="1" opacity="0.75"/>
<rect class="w" x="235" y="221" width="6" height="9" rx="1" opacity="0.57"/>
<rect class="w" x="235" y="293" width="6" height="9" rx="1" opacity="0.69"/>
<rect class="w" x="235" y="311" width="6" height="9" rx="1" opacity="0.35"/>
<rect x="263" y="190" width="68" height="190" rx="2"/>
<rect class="w" x="271" y="202" width="6" height="9" rx="1" opacity="0.6"/>
<rect class="w" x="271" y="256" width="6" height="9" rx="1" opacity="0.64"/>
<rect class="w" x="271" y="346" width="6" height="9" rx="1" opacity="0.87"/>
<rect class="w" x="285" y="202" width="6" height="9" rx="1" opacity="0.71"/>
<rect class="w" x="285" y="238" width="6" height="9" rx="1" opacity="0.52"/>
<rect class="w" x="285" y="310" width="6" height="9" rx="1" opacity="0.39"/>
<rect class="w" x="285" y="346" width="6" height="9" rx="1" opacity="0.83"/>
<rect class="w" x="299" y="238" width="6" height="9" rx="1" opacity="0.33"/>
<rect class="w" x="299" y="292" width="6" height="9" rx="1" opacity="0.31"/>
<rect class="w" x="299" y="310" width="6" height="9" rx="1" opacity="0.87"/>
<rect class="w" x="299" y="328" width="6" height="9" rx="1" opacity="0.79"/>
<rect x="341" y="215" width="64" height="165" rx="2"/>
<rect x="371" y="186" width="5" height="29"/>
<rect class="w" x="349" y="299" width="6" height="9" rx="1" opacity="0.84"/>
<rect class="w" x="349" y="335" width="6" height="9" rx="1" opacity="0.95"/>
<rect class="w" x="363" y="227" width="6" height="9" rx="1" opacity="0.59"/>
<rect class="w" x="363" y="281" width="6" height="9" rx="1" opacity="0.68"/>
<rect class="w" x="377" y="245" width="6" height="9" rx="1" opacity="0.79"/>
<rect class="w" x="377" y="317" width="6" height="9" rx="1" opacity="0.92"/>
<rect x="415" y="193" width="101" height="187" rx="2"/>
<rect class="w" x="423" y="223" width="6" height="9" rx="1" opacity="0.31"/>
<rect class="w" x="423" y="313" width="6" height="9" rx="1" opacity="0.86"/>
<rect class="w" x="423" y="331" width="6" height="9" rx="1" opacity="0.85"/>
<rect class="w" x="423" y="349" width="6" height="9" rx="1" opacity="0.5"/>
<rect class="w" x="437" y="223" width="6" height="9" rx="1" opacity="0.36"/>
<rect class="w" x="451" y="205" width="6" height="9" rx="1" opacity="0.42"/>
<rect class="w" x="451" y="241" width="6" height="9" rx="1" opacity="0.8"/>
<rect class="w" x="451" y="331" width="6" height="9" rx="1" opacity="0.54"/>
<rect class="w" x="465" y="223" width="6" height="9" rx="1" opacity="0.89"/>
<rect class="w" x="465" y="295" width="6" height="9" rx="1" opacity="0.65"/>
<rect class="w" x="465" y="349" width="6" height="9" rx="1" opacity="0.98"/>
<rect class="w" x="479" y="223" width="6" height="9" rx="1" opacity="0.85"/>
<rect class="w" x="479" y="295" width="6" height="9" rx="1" opacity="0.65"/>
<rect class="w" x="479" y="313" width="6" height="9" rx="1" opacity="0.97"/>
<rect class="w" x="479" y="349" width="6" height="9" rx="1" opacity="0.6"/>
<rect class="w" x="493" y="205" width="6" height="9" rx="1" opacity="0.58"/>
<rect class="w" x="493" y="277" width="6" height="9" rx="1" opacity="0.39"/>
<rect class="w" x="493" y="331" width="6" height="9" rx="1" opacity="0.83"/>
<rect class="w" x="493" y="349" width="6" height="9" rx="1" opacity="0.4"/>
<rect x="521" y="85" width="61" height="295" rx="2"/>
<rect x="549" y="66" width="5" height="19"/>
<rect class="w" x="529" y="115" width="6" height="9" rx="1" opacity="0.8"/>
<rect class="w" x="529" y="133" width="6" height="9" rx="1" opacity="0.63"/>
<rect class="w" x="529" y="151" width="6" height="9" rx="1" opacity="0.4"/>
<rect class="w" x="529" y="205" width="6" height="9" rx="1" opacity="0.56"/>
<rect class="w" x="529" y="241" width="6" height="9" rx="1" opacity="0.4"/>
<rect class="w" x="543" y="97" width="6" height="9" rx="1" opacity="0.81"/>
<rect class="w" x="543" y="151" width="6" height="9" rx="1" opacity="0.49"/>
<rect class="w" x="543" y="187" width="6" height="9" rx="1" opacity="1.0"/>
<rect class="w" x="543" y="223" width="6" height="9" rx="1" opacity="0.43"/>
<rect class="w" x="543" y="259" width="6" height="9" rx="1" opacity="0.32"/>
<rect class="w" x="543" y="331" width="6" height="9" rx="1" opacity="0.55"/>
<rect class="w" x="557" y="97" width="6" height="9" rx="1" opacity="0.4"/>
<rect class="w" x="557" y="169" width="6" height="9" rx="1" opacity="0.63"/>
<rect class="w" x="557" y="241" width="6" height="9" rx="1" opacity="0.3"/>
<rect class="w" x="557" y="259" width="6" height="9" rx="1" opacity="0.28"/>
<rect class="w" x="557" y="331" width="6" height="9" rx="1" opacity="0.39"/>
<rect class="w" x="557" y="349" width="6" height="9" rx="1" opacity="0.88"/>
<rect x="588" y="112" width="72" height="268" rx="2"/>
<rect x="621" y="98" width="6" height="14"/>
<rect class="w" x="596" y="142" width="6" height="9" rx="1" opacity="0.6"/>
<rect class="w" x="596" y="214" width="6" height="9" rx="1" opacity="0.78"/>
<rect class="w" x="596" y="250" width="6" height="9" rx="1" opacity="0.59"/>
<rect class="w" x="596" y="286" width="6" height="9" rx="1" opacity="0.4"/>
<rect class="w" x="596" y="304" width="6" height="9" rx="1" opacity="0.63"/>
<rect class="w" x="596" y="322" width="6" height="9" rx="1" opacity="0.92"/>
<rect class="w" x="610" y="178" width="6" height="9" rx="1" opacity="0.7"/>
<rect class="w" x="610" y="250" width="6" height="9" rx="1" opacity="0.93"/>
<rect class="w" x="610" y="322" width="6" height="9" rx="1" opacity="0.92"/>
<rect class="w" x="624" y="178" width="6" height="9" rx="1" opacity="0.79"/>
<rect class="w" x="624" y="196" width="6" height="9" rx="1" opacity="0.51"/>
<rect class="w" x="624" y="232" width="6" height="9" rx="1" opacity="0.52"/>
<rect class="w" x="624" y="286" width="6" height="9" rx="1" opacity="0.96"/>
<rect class="w" x="624" y="322" width="6" height="9" rx="1" opacity="0.74"/>
<rect class="w" x="638" y="142" width="6" height="9" rx="1" opacity="1.0"/>
<rect class="w" x="638" y="232" width="6" height="9" rx="1" opacity="0.71"/>
<rect class="w" x="638" y="268" width="6" height="9" rx="1" opacity="0.55"/>
<rect class="w" x="638" y="286" width="6" height="9" rx="1" opacity="0.4"/>
<rect class="w" x="638" y="304" width="6" height="9" rx="1" opacity="0.32"/>
<rect class="w" x="638" y="322" width="6" height="9" rx="1" opacity="0.93"/>
<rect x="670" y="127" width="113" height="253" rx="2"/>
<rect class="w" x="678" y="193" width="6" height="9" rx="1" opacity="0.7"/>
<rect class="w" x="678" y="229" width="6" height="9" rx="1" opacity="0.95"/>
<rect class="w" x="678" y="247" width="6" height="9" rx="1" opacity="0.6"/>
<rect class="w" x="678" y="265" width="6" height="9" rx="1" opacity="0.62"/>
<rect class="w" x="678" y="301" width="6" height="9" rx="1" opacity="0.96"/>
<rect class="w" x="692" y="139" width="6" height="9" rx="1" opacity="0.46"/>
<rect class="w" x="692" y="193" width="6" height="9" rx="1" opacity="0.79"/>
<rect class="w" x="692" y="211" width="6" height="9" rx="1" opacity="0.26"/>
<rect class="w" x="692" y="229" width="6" height="9" rx="1" opacity="0.28"/>
<rect class="w" x="692" y="247" width="6" height="9" rx="1" opacity="0.82"/>
<rect class="w" x="692" y="265" width="6" height="9" rx="1" opacity="0.92"/>
<rect class="w" x="692" y="301" width="6" height="9" rx="1" opacity="0.99"/>
<rect class="w" x="692" y="337" width="6" height="9" rx="1" opacity="0.93"/>
<rect class="w" x="706" y="175" width="6" height="9" rx="1" opacity="0.64"/>
<rect class="w" x="706" y="301" width="6" height="9" rx="1" opacity="0.72"/>
<rect class="w" x="706" y="337" width="6" height="9" rx="1" opacity="0.29"/>
<rect class="w" x="720" y="139" width="6" height="9" rx="1" opacity="0.58"/>
<rect class="w" x="720" y="193" width="6" height="9" rx="1" opacity="0.69"/>
<rect class="w" x="720" y="211" width="6" height="9" rx="1" opacity="0.83"/>
<rect class="w" x="720" y="301" width="6" height="9" rx="1" opacity="0.34"/>
<rect class="w" x="734" y="139" width="6" height="9" rx="1" opacity="0.45"/>
<rect class="w" x="734" y="247" width="6" height="9" rx="1" opacity="0.44"/>
<rect class="w" x="734" y="319" width="6" height="9" rx="1" opacity="0.3"/>
<rect class="w" x="734" y="337" width="6" height="9" rx="1" opacity="0.57"/>
<rect class="w" x="748" y="139" width="6" height="9" rx="1" opacity="0.66"/>
<rect class="w" x="748" y="157" width="6" height="9" rx="1" opacity="0.31"/>
<rect class="w" x="748" y="229" width="6" height="9" rx="1" opacity="0.61"/>
<rect class="w" x="748" y="247" width="6" height="9" rx="1" opacity="0.51"/>
<rect class="w" x="748" y="301" width="6" height="9" rx="1" opacity="0.34"/>
<rect class="w" x="762" y="139" width="6" height="9" rx="1" opacity="0.57"/>
<rect class="w" x="762" y="157" width="6" height="9" rx="1" opacity="0.86"/>
<rect class="w" x="762" y="175" width="6" height="9" rx="1" opacity="0.74"/>
<rect class="w" x="762" y="211" width="6" height="9" rx="1" opacity="0.66"/>
<rect class="w" x="762" y="283" width="6" height="9" rx="1" opacity="0.32"/>
<rect class="w" x="762" y="319" width="6" height="9" rx="1" opacity="0.31"/>
<rect x="795" y="184" width="119" height="196" rx="2"/>
<rect class="w" x="803" y="196" width="6" height="9" rx="1" opacity="0.48"/>
<rect class="w" x="803" y="304" width="6" height="9" rx="1" opacity="0.91"/>
<rect class="w" x="803" y="322" width="6" height="9" rx="1" opacity="0.74"/>
<rect class="w" x="803" y="340" width="6" height="9" rx="1" opacity="0.93"/>
<rect class="w" x="817" y="196" width="6" height="9" rx="1" opacity="0.58"/>
<rect class="w" x="817" y="268" width="6" height="9" rx="1" opacity="0.65"/>
<rect class="w" x="817" y="322" width="6" height="9" rx="1" opacity="0.98"/>
<rect class="w" x="831" y="214" width="6" height="9" rx="1" opacity="0.87"/>
<rect class="w" x="831" y="232" width="6" height="9" rx="1" opacity="0.76"/>
<rect class="w" x="831" y="304" width="6" height="9" rx="1" opacity="0.54"/>
<rect class="w" x="831" y="322" width="6" height="9" rx="1" opacity="0.69"/>
<rect class="w" x="831" y="340" width="6" height="9" rx="1" opacity="0.32"/>
<rect class="w" x="845" y="250" width="6" height="9" rx="1" opacity="0.29"/>
<rect class="w" x="845" y="268" width="6" height="9" rx="1" opacity="0.47"/>
<rect class="w" x="845" y="286" width="6" height="9" rx="1" opacity="0.88"/>
<rect class="w" x="845" y="340" width="6" height="9" rx="1" opacity="0.66"/>
<rect class="w" x="859" y="196" width="6" height="9" rx="1" opacity="0.46"/>
<rect class="w" x="859" y="214" width="6" height="9" rx="1" opacity="0.49"/>
<rect class="w" x="859" y="232" width="6" height="9" rx="1" opacity="0.74"/>
<rect class="w" x="859" y="250" width="6" height="9" rx="1" opacity="0.86"/>
<rect class="w" x="859" y="340" width="6" height="9" rx="1" opacity="0.59"/>
<rect class="w" x="873" y="196" width="6" height="9" rx="1" opacity="0.86"/>
<rect class="w" x="873" y="214" width="6" height="9" rx="1" opacity="0.35"/>
<rect class="w" x="873" y="268" width="6" height="9" rx="1" opacity="0.71"/>
<rect class="w" x="873" y="286" width="6" height="9" rx="1" opacity="0.82"/>
<rect class="w" x="873" y="322" width="6" height="9" rx="1" opacity="0.25"/>
<rect class="w" x="873" y="340" width="6" height="9" rx="1" opacity="0.32"/>
<rect class="w" x="887" y="232" width="6" height="9" rx="1" opacity="0.52"/>
<rect class="w" x="887" y="250" width="6" height="9" rx="1" opacity="0.33"/>
<rect class="w" x="887" y="304" width="6" height="9" rx="1" opacity="0.37"/>
<rect x="921" y="161" width="86" height="219" rx="2"/>
<rect class="w" x="929" y="173" width="6" height="9" rx="1" opacity="0.98"/>
<rect class="w" x="929" y="191" width="6" height="9" rx="1" opacity="0.48"/>
<rect class="w" x="929" y="209" width="6" height="9" rx="1" opacity="0.74"/>
<rect class="w" x="929" y="245" width="6" height="9" rx="1" opacity="0.3"/>
<rect class="w" x="929" y="317" width="6" height="9" rx="1" opacity="0.33"/>
<rect class="w" x="929" y="335" width="6" height="9" rx="1" opacity="0.41"/>
<rect class="w" x="929" y="353" width="6" height="9" rx="1" opacity="0.79"/>
<rect class="w" x="943" y="191" width="6" height="9" rx="1" opacity="0.39"/>
<rect class="w" x="943" y="209" width="6" height="9" rx="1" opacity="0.38"/>
<rect class="w" x="943" y="245" width="6" height="9" rx="1" opacity="0.66"/>
<rect class="w" x="943" y="299" width="6" height="9" rx="1" opacity="0.92"/>
<rect class="w" x="943" y="335" width="6" height="9" rx="1" opacity="0.66"/>
<rect class="w" x="957" y="191" width="6" height="9" rx="1" opacity="0.29"/>
<rect class="w" x="957" y="245" width="6" height="9" rx="1" opacity="0.65"/>
<rect class="w" x="957" y="281" width="6" height="9" rx="1" opacity="0.99"/>
<rect class="w" x="957" y="317" width="6" height="9" rx="1" opacity="0.26"/>
<rect class="w" x="957" y="353" width="6" height="9" rx="1" opacity="0.85"/>
<rect class="w" x="971" y="209" width="6" height="9" rx="1" opacity="0.37"/>
<rect class="w" x="971" y="227" width="6" height="9" rx="1" opacity="0.44"/>
<rect class="w" x="971" y="317" width="6" height="9" rx="1" opacity="0.65"/>
<rect class="w" x="971" y="335" width="6" height="9" rx="1" opacity="0.83"/>
<rect class="w" x="971" y="353" width="6" height="9" rx="1" opacity="0.87"/>
<rect class="w" x="985" y="209" width="6" height="9" rx="1" opacity="0.45"/>
<rect class="w" x="985" y="245" width="6" height="9" rx="1" opacity="0.61"/>
<rect class="w" x="985" y="335" width="6" height="9" rx="1" opacity="0.84"/>
<rect class="w" x="985" y="353" width="6" height="9" rx="1" opacity="0.94"/>
<rect x="1010" y="207" width="116" height="173" rx="2"/>
<rect x="1065" y="179" width="6" height="28"/>
<rect class="w" x="1018" y="273" width="6" height="9" rx="1" opacity="0.55"/>
<rect class="w" x="1018" y="345" width="6" height="9" rx="1" opacity="0.31"/>
<rect class="w" x="1032" y="219" width="6" height="9" rx="1" opacity="0.75"/>
<rect class="w" x="1032" y="291" width="6" height="9" rx="1" opacity="0.58"/>
<rect class="w" x="1046" y="219" width="6" height="9" rx="1" opacity="0.33"/>
<rect class="w" x="1046" y="327" width="6" height="9" rx="1" opacity="0.72"/>
<rect class="w" x="1060" y="291" width="6" height="9" rx="1" opacity="0.39"/>
<rect class="w" x="1060" y="309" width="6" height="9" rx="1" opacity="0.33"/>
<rect class="w" x="1060" y="327" width="6" height="9" rx="1" opacity="0.46"/>
<rect class="w" x="1074" y="255" width="6" height="9" rx="1" opacity="0.33"/>
<rect class="w" x="1074" y="291" width="6" height="9" rx="1" opacity="0.72"/>
<rect class="w" x="1074" y="309" width="6" height="9" rx="1" opacity="0.39"/>
<rect class="w" x="1074" y="327" width="6" height="9" rx="1" opacity="0.6"/>
<rect class="w" x="1088" y="219" width="6" height="9" rx="1" opacity="0.27"/>
<rect class="w" x="1088" y="291" width="6" height="9" rx="1" opacity="0.87"/>
<rect class="w" x="1088" y="327" width="6" height="9" rx="1" opacity="0.4"/>
<rect class="w" x="1088" y="345" width="6" height="9" rx="1" opacity="0.77"/>
<rect class="w" x="1102" y="309" width="6" height="9" rx="1" opacity="0.84"/>
<rect class="w" x="1102" y="327" width="6" height="9" rx="1" opacity="0.99"/>
<rect x="1132" y="212" width="102" height="168" rx="2"/>
<rect x="1180" y="197" width="6" height="15"/>
<rect class="w" x="1140" y="242" width="6" height="9" rx="1" opacity="0.5"/>
<rect class="w" x="1140" y="260" width="6" height="9" rx="1" opacity="0.33"/>
<rect class="w" x="1140" y="296" width="6" height="9" rx="1" opacity="0.65"/>
<rect class="w" x="1140" y="314" width="6" height="9" rx="1" opacity="0.43"/>
<rect class="w" x="1154" y="242" width="6" height="9" rx="1" opacity="0.95"/>
<rect class="w" x="1154" y="332" width="6" height="9" rx="1" opacity="0.74"/>
<rect class="w" x="1168" y="224" width="6" height="9" rx="1" opacity="0.61"/>
<rect class="w" x="1168" y="242" width="6" height="9" rx="1" opacity="0.5"/>
<rect class="w" x="1168" y="260" width="6" height="9" rx="1" opacity="0.9"/>
<rect class="w" x="1168" y="278" width="6" height="9" rx="1" opacity="0.91"/>
<rect class="w" x="1168" y="332" width="6" height="9" rx="1" opacity="0.68"/>
<rect class="w" x="1182" y="224" width="6" height="9" rx="1" opacity="0.94"/>
<rect class="w" x="1182" y="242" width="6" height="9" rx="1" opacity="0.81"/>
<rect class="w" x="1182" y="278" width="6" height="9" rx="1" opacity="0.36"/>
<rect class="w" x="1182" y="314" width="6" height="9" rx="1" opacity="0.76"/>
<rect class="w" x="1182" y="332" width="6" height="9" rx="1" opacity="0.82"/>
<rect class="w" x="1182" y="350" width="6" height="9" rx="1" opacity="0.37"/>
<rect class="w" x="1196" y="278" width="6" height="9" rx="1" opacity="0.84"/>
<rect class="w" x="1196" y="332" width="6" height="9" rx="1" opacity="0.82"/>
<rect class="w" x="1210" y="296" width="6" height="9" rx="1" opacity="0.56"/>
<rect class="w" x="1210" y="314" width="6" height="9" rx="1" opacity="0.65"/>
<rect class="w" x="1210" y="332" width="6" height="9" rx="1" opacity="0.55"/>
<rect class="w" x="1210" y="350" width="6" height="9" rx="1" opacity="0.35"/>
<rect x="1239" y="175" width="132" height="205" rx="2"/>
<rect x="1304" y="140" width="3" height="35"/>
<rect class="w" x="1247" y="205" width="6" height="9" rx="1" opacity="0.97"/>
<rect class="w" x="1247" y="259" width="6" height="9" rx="1" opacity="0.72"/>
<rect class="w" x="1261" y="223" width="6" height="9" rx="1" opacity="0.58"/>
<rect class="w" x="1261" y="349" width="6" height="9" rx="1" opacity="0.29"/>
<rect class="w" x="1275" y="277" width="6" height="9" rx="1" opacity="0.7"/>
<rect class="w" x="1275" y="295" width="6" height="9" rx="1" opacity="0.34"/>
<rect class="w" x="1275" y="349" width="6" height="9" rx="1" opacity="0.29"/>
<rect class="w" x="1289" y="223" width="6" height="9" rx="1" opacity="0.48"/>
<rect class="w" x="1289" y="241" width="6" height="9" rx="1" opacity="0.43"/>
<rect class="w" x="1289" y="259" width="6" height="9" rx="1" opacity="0.93"/>
<rect class="w" x="1303" y="187" width="6" height="9" rx="1" opacity="0.81"/>
<rect class="w" x="1303" y="241" width="6" height="9" rx="1" opacity="0.84"/>
<rect class="w" x="1303" y="259" width="6" height="9" rx="1" opacity="0.65"/>
<rect class="w" x="1303" y="295" width="6" height="9" rx="1" opacity="0.43"/>
<rect class="w" x="1303" y="313" width="6" height="9" rx="1" opacity="0.49"/>
<rect class="w" x="1303" y="331" width="6" height="9" rx="1" opacity="0.92"/>
<rect class="w" x="1317" y="187" width="6" height="9" rx="1" opacity="0.52"/>
<rect class="w" x="1317" y="223" width="6" height="9" rx="1" opacity="0.27"/>
<rect class="w" x="1317" y="259" width="6" height="9" rx="1" opacity="0.62"/>
<rect class="w" x="1317" y="331" width="6" height="9" rx="1" opacity="0.47"/>
<rect class="w" x="1331" y="205" width="6" height="9" rx="1" opacity="0.88"/>
<rect class="w" x="1331" y="223" width="6" height="9" rx="1" opacity="0.6"/>
<rect class="w" x="1331" y="241" width="6" height="9" rx="1" opacity="0.91"/>
<rect class="w" x="1331" y="277" width="6" height="9" rx="1" opacity="0.72"/>
<rect class="w" x="1331" y="295" width="6" height="9" rx="1" opacity="0.91"/>
<rect class="w" x="1331" y="313" width="6" height="9" rx="1" opacity="0.33"/>
<rect class="w" x="1331" y="349" width="6" height="9" rx="1" opacity="0.93"/>
<rect class="w" x="1345" y="223" width="6" height="9" rx="1" opacity="0.77"/>
<rect class="w" x="1345" y="277" width="6" height="9" rx="1" opacity="0.42"/>
<rect class="w" x="1345" y="295" width="6" height="9" rx="1" opacity="0.78"/>
<rect class="w" x="1345" y="313" width="6" height="9" rx="1" opacity="0.39"/>
<rect class="w" x="1345" y="331" width="6" height="9" rx="1" opacity="0.75"/>
<rect x="1378" y="231" width="127" height="149" rx="2"/>
<rect class="w" x="1386" y="243" width="6" height="9" rx="1" opacity="0.48"/>
<rect class="w" x="1386" y="297" width="6" height="9" rx="1" opacity="0.73"/>
<rect class="w" x="1386" y="315" width="6" height="9" rx="1" opacity="0.99"/>
<rect class="w" x="1400" y="261" width="6" height="9" rx="1" opacity="0.7"/>
<rect class="w" x="1400" y="279" width="6" height="9" rx="1" opacity="0.44"/>
<rect class="w" x="1400" y="315" width="6" height="9" rx="1" opacity="0.46"/>
<rect class="w" x="1400" y="351" width="6" height="9" rx="1" opacity="0.46"/>
<rect class="w" x="1414" y="261" width="6" height="9" rx="1" opacity="0.92"/>
<rect class="w" x="1414" y="297" width="6" height="9" rx="1" opacity="0.6"/>
<rect class="w" x="1414" y="333" width="6" height="9" rx="1" opacity="0.95"/>
<rect class="w" x="1428" y="243" width="6" height="9" rx="1" opacity="0.67"/>
<rect class="w" x="1428" y="279" width="6" height="9" rx="1" opacity="0.74"/>
<rect class="w" x="1442" y="297" width="6" height="9" rx="1" opacity="0.83"/>
<rect class="w" x="1442" y="315" width="6" height="9" rx="1" opacity="0.71"/>
<rect class="w" x="1442" y="333" width="6" height="9" rx="1" opacity="0.58"/>
<rect class="w" x="1456" y="279" width="6" height="9" rx="1" opacity="0.62"/>
<rect class="w" x="1456" y="297" width="6" height="9" rx="1" opacity="0.69"/>
<rect class="w" x="1456" y="333" width="6" height="9" rx="1" opacity="0.7"/>
<rect class="w" x="1470" y="279" width="6" height="9" rx="1" opacity="0.36"/>
<rect class="w" x="1470" y="297" width="6" height="9" rx="1" opacity="0.62"/>
<rect class="w" x="1470" y="351" width="6" height="9" rx="1" opacity="0.85"/>
<rect class="w" x="1484" y="243" width="6" height="9" rx="1" opacity="0.93"/>
<rect class="w" x="1484" y="315" width="6" height="9" rx="1" opacity="0.36"/>
<rect class="w" x="1484" y="333" width="6" height="9" rx="1" opacity="0.28"/>
<rect class="w" x="1484" y="351" width="6" height="9" rx="1" opacity="0.72"/>
<rect x="1515" y="110" width="93" height="270" rx="2"/>
<rect class="w" x="1523" y="158" width="6" height="9" rx="1" opacity="0.44"/>
<rect class="w" x="1523" y="248" width="6" height="9" rx="1" opacity="0.6"/>
<rect class="w" x="1523" y="320" width="6" height="9" rx="1" opacity="0.82"/>
<rect class="w" x="1523" y="356" width="6" height="9" rx="1" opacity="0.81"/>
<rect class="w" x="1537" y="158" width="6" height="9" rx="1" opacity="0.56"/>
<rect class="w" x="1537" y="194" width="6" height="9" rx="1" opacity="0.67"/>
<rect class="w" x="1537" y="338" width="6" height="9" rx="1" opacity="0.34"/>
<rect class="w" x="1551" y="122" width="6" height="9" rx="1" opacity="0.31"/>
<rect class="w" x="1551" y="140" width="6" height="9" rx="1" opacity="0.48"/>
<rect class="w" x="1551" y="194" width="6" height="9" rx="1" opacity="0.37"/>
<rect class="w" x="1551" y="338" width="6" height="9" rx="1" opacity="0.89"/>
<rect class="w" x="1565" y="122" width="6" height="9" rx="1" opacity="0.53"/>
<rect class="w" x="1565" y="140" width="6" height="9" rx="1" opacity="0.56"/>
<rect class="w" x="1565" y="158" width="6" height="9" rx="1" opacity="0.84"/>
<rect class="w" x="1565" y="212" width="6" height="9" rx="1" opacity="0.7"/>
<rect class="w" x="1565" y="302" width="6" height="9" rx="1" opacity="0.62"/>
<rect class="w" x="1565" y="338" width="6" height="9" rx="1" opacity="0.29"/>
<rect class="w" x="1565" y="356" width="6" height="9" rx="1" opacity="0.96"/>
<rect class="w" x="1579" y="230" width="6" height="9" rx="1" opacity="0.33"/>
<rect class="w" x="1579" y="248" width="6" height="9" rx="1" opacity="0.8"/>
<rect class="w" x="1579" y="284" width="6" height="9" rx="1" opacity="0.43"/>
<rect class="w" x="1579" y="320" width="6" height="9" rx="1" opacity="1.0"/>
<rect x="1616" y="195" width="101" height="185" rx="2"/>
<rect class="w" x="1624" y="225" width="6" height="9" rx="1" opacity="0.55"/>
<rect class="w" x="1624" y="243" width="6" height="9" rx="1" opacity="0.28"/>
<rect class="w" x="1624" y="261" width="6" height="9" rx="1" opacity="0.7"/>
<rect class="w" x="1624" y="279" width="6" height="9" rx="1" opacity="0.48"/>
<rect class="w" x="1624" y="333" width="6" height="9" rx="1" opacity="0.78"/>
<rect class="w" x="1624" y="351" width="6" height="9" rx="1" opacity="0.79"/>
<rect class="w" x="1638" y="225" width="6" height="9" rx="1" opacity="0.4"/>
<rect class="w" x="1638" y="243" width="6" height="9" rx="1" opacity="0.78"/>
<rect class="w" x="1638" y="261" width="6" height="9" rx="1" opacity="0.54"/>
<rect class="w" x="1638" y="297" width="6" height="9" rx="1" opacity="0.47"/>
<rect class="w" x="1638" y="315" width="6" height="9" rx="1" opacity="0.41"/>
<rect class="w" x="1638" y="333" width="6" height="9" rx="1" opacity="0.27"/>
<rect class="w" x="1652" y="261" width="6" height="9" rx="1" opacity="0.75"/>
<rect class="w" x="1652" y="297" width="6" height="9" rx="1" opacity="0.77"/>
<rect class="w" x="1666" y="207" width="6" height="9" rx="1" opacity="0.72"/>
<rect class="w" x="1666" y="225" width="6" height="9" rx="1" opacity="0.57"/>
<rect class="w" x="1666" y="243" width="6" height="9" rx="1" opacity="0.3"/>
<rect class="w" x="1666" y="261" width="6" height="9" rx="1" opacity="0.5"/>
<rect class="w" x="1666" y="297" width="6" height="9" rx="1" opacity="0.37"/>
<rect class="w" x="1666" y="315" width="6" height="9" rx="1" opacity="0.61"/>
<rect class="w" x="1666" y="333" width="6" height="9" rx="1" opacity="0.75"/>
<rect class="w" x="1666" y="351" width="6" height="9" rx="1" opacity="0.32"/>
<rect class="w" x="1680" y="207" width="6" height="9" rx="1" opacity="0.57"/>
<rect class="w" x="1680" y="225" width="6" height="9" rx="1" opacity="0.69"/>
<rect class="w" x="1680" y="297" width="6" height="9" rx="1" opacity="0.54"/>
<rect class="w" x="1680" y="315" width="6" height="9" rx="1" opacity="0.3"/>
<rect class="w" x="1680" y="333" width="6" height="9" rx="1" opacity="0.29"/>
<rect class="w" x="1694" y="243" width="6" height="9" rx="1" opacity="0.44"/>
<rect class="w" x="1694" y="261" width="6" height="9" rx="1" opacity="0.51"/>
<rect class="w" x="1694" y="315" width="6" height="9" rx="1" opacity="0.75"/>
<rect class="w" x="1694" y="333" width="6" height="9" rx="1" opacity="0.6"/></g>
  <style>.w{fill:#7f9cff;}</style>
</svg>